<svg xmlns="http://www.w3.org/2000/svg" xmlns:xlink="http://www.w3.org/1999/xlink" viewBox="383 208.033 380 40.226" width="417" height="44.14274210526315" x="41.5px" y="227.9286px" preserveAspectRatio="none"><defs/><style>.ahTdFi603-color63fa0042-609f-4538-bad3-bf27fdc57d61 {fill:#00FF8C;fill-opacity:1;}.companyName63fa0042-609f-4538-bad3-bf27fdc57d61 {fill:#EBE7D9;fill-opacity:1;}.icon3-str63fa0042-609f-4538-bad3-bf27fdc57d61 {stroke:#F55139;stroke-opacity:1;}</style><g opacity="1" transform="rotate(0 433.3022 208.033)">
<svg width="329.6978" height="40.226" x="433.3022" y="208.033" version="1.1" preserveAspectRatio="none" viewBox="-0.32 -28.48 237.35999999999999 28.96">
  <g transform="matrix(1 0 0 1 0 0)" class="companyName63fa0042-609f-4538-bad3-bf27fdc57d61"><path id="id-63fa0042-609f-4538-bad3-bf27fdc57d61D6z1nYkh8" d="M10.92 0.48Q7.60 0.48 4.56-0.40Q1.52-1.28-0.32-2.64L-0.32-2.64L2.32-7.64Q4.24-6.24 6.64-5.48Q9.04-4.72 11.56-4.72L11.56-4.72Q14.24-4.72 15.80-5.60Q17.36-6.48 17.36-8L17.36-8Q17.36-9.24 16.12-9.90Q14.88-10.56 12.16-11.32L12.16-11.32Q9.44-12.12 7.72-12.86Q6-13.60 4.74-15.08Q3.48-16.56 3.48-19L3.48-19Q3.48-21.84 5.06-24Q6.64-26.16 9.54-27.32Q12.44-28.48 16.28-28.48L16.28-28.48Q19.12-28.48 21.64-27.86Q24.16-27.24 25.96-26.08L25.96-26.08L23.52-21.12Q21.96-22.20 20-22.74Q18.04-23.28 15.92-23.28L15.92-23.28Q13.16-23.28 11.56-22.32Q9.96-21.36 9.96-19.84L9.96-19.84Q9.96-18.92 10.64-18.30Q11.32-17.68 12.36-17.30Q13.40-16.92 15.28-16.40L15.28-16.40Q17.96-15.68 19.68-14.94Q21.40-14.20 22.62-12.78Q23.84-11.36 23.84-9.04L23.84-9.04Q23.84-6.16 22.24-4.02Q20.64-1.88 17.72-0.70Q14.80 0.48 10.92 0.48L10.92 0.48Z M51.48-28L57.96-28L52.36 0L45.88 0L48.16-11.40L35.48-11.40L33.20 0L26.68 0L32.28-28L38.80-28L36.60-17L49.28-17L51.48-28Z M73.52 0.48Q69.32 0.48 66.24-1.04Q63.16-2.56 61.52-5.32Q59.88-8.08 59.88-11.68L59.88-11.68Q59.88-16.44 62.06-20.26Q64.24-24.08 68.18-26.28Q72.12-28.48 77.20-28.48L77.20-28.48Q81.40-28.48 84.48-26.96Q87.56-25.44 89.20-22.68Q90.84-19.92 90.84-16.32L90.84-16.32Q90.84-11.56 88.66-7.74Q86.48-3.92 82.54-1.72Q78.60 0.48 73.52 0.48L73.52 0.48ZM74.08-5.04Q77.16-5.04 79.48-6.52Q81.80-8 83.04-10.48Q84.28-12.96 84.28-15.96L84.28-15.96Q84.28-19.16 82.28-21.06Q80.28-22.96 76.64-22.96L76.64-22.96Q73.56-22.96 71.24-21.48Q68.92-20 67.68-17.52Q66.44-15.04 66.44-12.04L66.44-12.04Q66.44-8.84 68.44-6.94Q70.44-5.04 74.08-5.04L74.08-5.04Z M109.68-28Q114.92-28 117.78-25.70Q120.64-23.40 120.64-19.28L120.64-19.28Q120.64-15.76 118.98-13.14Q117.32-10.52 114.26-9.12Q111.20-7.72 107.04-7.72L107.04-7.72L100.80-7.72L99.28 0L92.76 0L98.36-28L109.68-28ZM107.32-13Q110.56-13 112.32-14.48Q114.08-15.96 114.08-18.72L114.08-18.72Q114.08-20.72 112.74-21.72Q111.40-22.72 108.88-22.72L108.88-22.72L103.80-22.72L101.84-13L107.32-13Z M131.80 0.48Q128.48 0.48 125.44-0.40Q122.40-1.28 120.56-2.64L120.56-2.64L123.20-7.64Q125.12-6.24 127.52-5.48Q129.92-4.72 132.44-4.72L132.44-4.72Q135.12-4.72 136.68-5.60Q138.24-6.48 138.24-8L138.24-8Q138.24-9.24 137-9.90Q135.76-10.56 133.04-11.32L133.04-11.32Q130.32-12.12 128.60-12.86Q126.88-13.60 125.62-15.08Q124.36-16.56 124.36-19L124.36-19Q124.36-21.84 125.94-24Q127.52-26.16 130.42-27.32Q133.32-28.48 137.16-28.48L137.16-28.48Q140-28.48 142.52-27.86Q145.04-27.24 146.84-26.08L146.84-26.08L144.40-21.12Q142.84-22.20 140.88-22.74Q138.92-23.28 136.80-23.28L136.80-23.28Q134.04-23.28 132.44-22.32Q130.84-21.36 130.84-19.84L130.84-19.84Q130.84-18.92 131.52-18.30Q132.20-17.68 133.24-17.30Q134.28-16.92 136.16-16.40L136.16-16.40Q138.84-15.68 140.56-14.94Q142.28-14.20 143.50-12.78Q144.72-11.36 144.72-9.04L144.72-9.04Q144.72-6.16 143.12-4.02Q141.52-1.88 138.60-0.70Q135.68 0.48 131.80 0.48L131.80 0.48Z M164.48-28Q169.72-28 172.58-25.70Q175.44-23.40 175.44-19.28L175.44-19.28Q175.44-15.76 173.78-13.14Q172.12-10.52 169.06-9.12Q166-7.72 161.84-7.72L161.84-7.72L155.60-7.72L154.08 0L147.56 0L153.16-28L164.48-28ZM162.12-13Q165.36-13 167.12-14.48Q168.88-15.96 168.88-18.72L168.88-18.72Q168.88-20.72 167.54-21.72Q166.20-22.72 163.68-22.72L163.68-22.72L158.60-22.72L156.64-13L162.12-13Z M191.36 0.48Q187.16 0.48 184.08-1.04Q181-2.56 179.36-5.32Q177.72-8.08 177.72-11.68L177.72-11.68Q177.72-16.44 179.90-20.26Q182.08-24.08 186.02-26.28Q189.96-28.48 195.04-28.48L195.04-28.48Q199.24-28.48 202.32-26.96Q205.40-25.44 207.04-22.68Q208.68-19.92 208.68-16.32L208.68-16.32Q208.68-11.56 206.50-7.74Q204.32-3.92 200.38-1.72Q196.44 0.48 191.36 0.48L191.36 0.48ZM191.92-5.04Q195-5.04 197.32-6.52Q199.64-8 200.88-10.48Q202.12-12.96 202.12-15.96L202.12-15.96Q202.12-19.16 200.12-21.06Q198.12-22.96 194.48-22.96L194.48-22.96Q191.40-22.96 189.08-21.48Q186.76-20 185.52-17.52Q184.28-15.04 184.28-12.04L184.28-12.04Q184.28-8.84 186.28-6.94Q188.28-5.04 191.92-5.04L191.92-5.04Z M216 0L220.52-22.72L211.56-22.72L212.64-28L237.04-28L235.96-22.72L227.04-22.72L222.48 0L216 0Z"/></g>
</svg>
</g><g opacity="1" transform="rotate(0 383 208.033)">
<svg width="50.3022" height="40.226" x="383" y="208.033" version="1.1" preserveAspectRatio="none" viewBox="-4.6 -33.68 47.12 37.68">
  <g transform="matrix(1 0 0 1 0 0)" class="ahTdFi603-color63fa0042-609f-4538-bad3-bf27fdc57d61"><path id="id-63fa0042-609f-4538-bad3-bf27fdc57d61hTdFi603-2" d="M-4.60 4L15.88-33.68L24.12-33.68L3.64 4L-4.60 4Z M13.80 4L34.28-33.68L42.52-33.68L22.04 4L13.80 4Z"/></g>
</svg>
</g></svg>